<svg width="50" height="50" viewBox="0 0 50 50" fill="none" xmlns="http://www.w3.org/2000/svg">
<path d="M24.9993 4.1665C13.5118 4.1665 4.16602 13.5123 4.16602 24.9998C4.16602 36.4873 13.5118 45.8332 24.9993 45.8332C36.4868 45.8332 45.8327 36.4873 45.8327 24.9998C45.8327 13.5123 36.4868 4.1665 24.9993 4.1665ZM8.33268 24.9998C8.33268 23.1269 8.65768 21.329 9.2306 19.6478L12.4993 22.9165L16.666 27.0832V31.2498L20.8327 35.4165L22.916 37.4998V41.5228C14.7098 40.4915 8.33268 33.4832 8.33268 24.9998ZM38.1868 35.1519C36.8264 34.0561 34.7639 33.3332 33.3327 33.3332V31.2498C33.3327 30.1448 32.8937 29.085 32.1123 28.3036C31.3309 27.5222 30.2711 27.0832 29.166 27.0832H20.8327V20.8332C21.9378 20.8332 22.9976 20.3942 23.779 19.6128C24.5604 18.8314 24.9993 17.7716 24.9993 16.6665V14.5832H27.0827C28.1877 14.5832 29.2476 14.1442 30.029 13.3628C30.8104 12.5814 31.2493 11.5216 31.2493 10.4165V9.56025C37.3493 12.0373 41.666 18.0207 41.666 24.9998C41.6656 28.6763 40.4416 32.248 38.1868 35.1519Z" fill="#243992"/>
</svg>
