<svg width="50" height="50" viewBox="0 0 50 50" fill="none" xmlns="http://www.w3.org/2000/svg">
<path d="M25.0007 4.1665C19.2569 4.1665 14.584 8.83942 14.584 14.5832V20.8332H12.5007C10.2027 20.8332 8.33398 22.7019 8.33398 24.9998V41.6665C8.33398 43.9644 10.2027 45.8332 12.5007 45.8332H37.5007C39.7986 45.8332 41.6673 43.9644 41.6673 41.6665V24.9998C41.6673 22.7019 39.7986 20.8332 37.5007 20.8332H35.4173V14.5832C35.4173 8.83942 30.7444 4.1665 25.0007 4.1665ZM37.5007 24.9998L37.5048 41.6665H12.5007V24.9998H37.5007ZM18.7507 20.8332V14.5832C18.7507 11.1373 21.5548 8.33317 25.0007 8.33317C28.4465 8.33317 31.2507 11.1373 31.2507 14.5832V20.8332H18.7507Z" fill="#243992"/>
</svg>
