<svg width="50" height="50" viewBox="0 0 50 50" fill="none" xmlns="http://www.w3.org/2000/svg">
<path d="M15.3649 34.9605L17.9691 31.7063L9.58574 25.0001L17.9691 18.2938L15.3649 15.0396L4.94824 23.373C4.70417 23.5682 4.50713 23.8157 4.37173 24.0974C4.23632 24.379 4.16602 24.6876 4.16602 25.0001C4.16602 25.3126 4.23632 25.6211 4.37173 25.9027C4.50713 26.1844 4.70417 26.432 4.94824 26.6272L15.3649 34.9605ZM34.6357 15.0396L32.0316 18.2938L40.4149 25.0001L32.0316 31.7063L34.6357 34.9605L45.0524 26.6272C45.2965 26.432 45.4935 26.1844 45.6289 25.9027C45.7643 25.6211 45.8346 25.3126 45.8346 25.0001C45.8346 24.6876 45.7643 24.379 45.6289 24.0974C45.4935 23.8157 45.2965 23.5682 45.0524 23.373L34.6357 15.0396ZM31.2003 6.70007L22.867 44.2001L18.7982 43.2959L27.1316 5.7959L31.2003 6.70007Z" fill="#243992"/>
</svg>
