<svg width="50" height="50" viewBox="0 0 50 50" fill="none" xmlns="http://www.w3.org/2000/svg">
<path d="M22.6565 25C22.6565 25.6216 22.9035 26.2177 23.343 26.6573C23.7825 27.0968 24.3787 27.3438 25.0003 27.3438C25.6219 27.3438 26.218 27.0968 26.6576 26.6573C27.0971 26.2177 27.344 25.6216 27.344 25C27.344 24.3784 27.0971 23.7823 26.6576 23.3427C26.218 22.9032 25.6219 22.6562 25.0003 22.6562C24.3787 22.6562 23.7825 22.9032 23.343 23.3427C22.9035 23.7823 22.6565 24.3784 22.6565 25ZM32.4222 25C32.4222 25.6216 32.6691 26.2177 33.1086 26.6573C33.5482 27.0968 34.1443 27.3438 34.7659 27.3438C35.3875 27.3438 35.9836 27.0968 36.4232 26.6573C36.8627 26.2177 37.1097 25.6216 37.1097 25C37.1097 24.3784 36.8627 23.7823 36.4232 23.3427C35.9836 22.9032 35.3875 22.6562 34.7659 22.6562C34.1443 22.6562 33.5482 22.9032 33.1086 23.3427C32.6691 23.7823 32.4222 24.3784 32.4222 25ZM12.8909 25C12.8909 25.6216 13.1378 26.2177 13.5774 26.6573C14.0169 27.0968 14.6131 27.3438 15.2347 27.3438C15.8563 27.3438 16.4524 27.0968 16.8919 26.6573C17.3315 26.2177 17.5784 25.6216 17.5784 25C17.5784 24.3784 17.3315 23.7823 16.8919 23.3427C16.4524 22.9032 15.8563 22.6562 15.2347 22.6562C14.6131 22.6562 14.0169 22.9032 13.5774 23.3427C13.1378 23.7823 12.8909 24.3784 12.8909 25ZM45.1761 16.5234C44.0725 13.9014 42.4905 11.5479 40.4739 9.52637C38.4714 7.51658 36.0942 5.91905 33.4768 4.82422C30.7913 3.69629 27.9397 3.125 25.0003 3.125H24.9026C21.9436 3.13965 19.0774 3.72559 16.3821 4.87793C13.7872 5.98399 11.4322 7.58436 9.44852 9.58984C7.45145 11.6064 5.88407 13.9502 4.80008 16.5625C3.67703 19.2676 3.11063 22.1436 3.12528 25.1025C3.14185 28.4935 3.94408 31.8345 5.46903 34.8633V42.2852C5.46903 42.8809 5.70567 43.4522 6.12689 43.8734C6.54812 44.2946 7.11942 44.5312 7.71512 44.5312H15.1419C18.1707 46.0562 21.5117 46.8584 24.9026 46.875H25.0052C27.93 46.875 30.7669 46.3086 33.4378 45.2002C36.0419 44.1184 38.4103 42.5395 40.4104 40.5518C42.427 38.5547 44.0139 36.2207 45.1223 33.6182C46.2747 30.9229 46.8606 28.0566 46.8753 25.0977C46.8899 22.124 46.3138 19.2383 45.1761 16.5234ZM37.7981 37.9102C34.3753 41.2988 29.8343 43.1641 25.0003 43.1641H24.9173C21.9729 43.1494 19.0481 42.417 16.4651 41.04L16.055 40.8203H9.17996V33.9453L8.96024 33.5352C7.58328 30.9521 6.85086 28.0273 6.83621 25.083C6.81668 20.2148 8.67704 15.6445 12.0901 12.2021C15.4983 8.75977 20.054 6.85547 24.9222 6.83594H25.0052C27.4466 6.83594 29.8147 7.30957 32.0462 8.24707C34.2239 9.16016 36.177 10.4736 37.8567 12.1533C39.5315 13.8281 40.8499 15.7861 41.763 17.9639C42.7102 20.2197 43.1839 22.6123 43.1741 25.083C43.1448 29.9463 41.2356 34.502 37.7981 37.9102Z" fill="#243992"/>
</svg>
