<svg width="25" height="25" viewBox="0 0 25 25" fill="none" xmlns="http://www.w3.org/2000/svg">
<g clip-path="url(#clip0_460_1448)">
<path d="M15.625 0.78125C15.625 0.57405 15.5427 0.375336 15.3962 0.228823C15.2497 0.08231 15.051 0 14.8438 0L10.1562 0C9.94905 0 9.75034 0.08231 9.60382 0.228823C9.45731 0.375336 9.375 0.57405 9.375 0.78125C9.375 0.98845 9.29269 1.18716 9.14618 1.33368C8.99966 1.48019 8.80095 1.5625 8.59375 1.5625C8.38655 1.5625 8.18784 1.64481 8.04132 1.79132C7.89481 1.93784 7.8125 2.13655 7.8125 2.34375V3.125C7.8125 3.3322 7.89481 3.53091 8.04132 3.67743C8.18784 3.82394 8.38655 3.90625 8.59375 3.90625H16.4062C16.6135 3.90625 16.8122 3.82394 16.9587 3.67743C17.1052 3.53091 17.1875 3.3322 17.1875 3.125V2.34375C17.1875 2.13655 17.1052 1.93784 16.9587 1.79132C16.8122 1.64481 16.6135 1.5625 16.4062 1.5625C16.199 1.5625 16.0003 1.48019 15.8538 1.33368C15.7073 1.18716 15.625 0.98845 15.625 0.78125Z" fill="#243992"/>
<path d="M6.38281 1.5625H5.46875C4.84715 1.5625 4.25101 1.80943 3.81147 2.24897C3.37193 2.68851 3.125 3.28465 3.125 3.90625V22.6562C3.125 23.2779 3.37193 23.874 3.81147 24.3135C4.25101 24.7531 4.84715 25 5.46875 25H19.5312C20.1529 25 20.749 24.7531 21.1885 24.3135C21.6281 23.874 21.875 23.2779 21.875 22.6562V3.90625C21.875 3.28465 21.6281 2.68851 21.1885 2.24897C20.749 1.80943 20.1529 1.5625 19.5312 1.5625H18.6172C18.7047 1.80833 18.749 2.06875 18.75 2.34375V3.125C18.75 3.7466 18.5031 4.34274 18.0635 4.78228C17.624 5.22182 17.0279 5.46875 16.4062 5.46875H8.59375C7.97215 5.46875 7.37601 5.22182 6.93647 4.78228C6.49693 4.34274 6.25 3.7466 6.25 3.125V2.34375C6.25104 2.06875 6.29531 1.80833 6.38281 1.5625ZM16.9594 12.2719L12.2719 16.9594C12.1993 17.0321 12.1131 17.0899 12.0182 17.1292C11.9233 17.1686 11.8215 17.1889 11.7188 17.1889C11.616 17.1889 11.5142 17.1686 11.4193 17.1292C11.3244 17.0899 11.2382 17.0321 11.1656 16.9594L8.82188 14.6156C8.74924 14.543 8.69162 14.4568 8.65231 14.3618C8.613 14.2669 8.59276 14.1652 8.59276 14.0625C8.59276 13.9598 8.613 13.8581 8.65231 13.7632C8.69162 13.6682 8.74924 13.582 8.82188 13.5094C8.96857 13.3627 9.16754 13.2803 9.375 13.2803C9.47773 13.2803 9.57944 13.3005 9.67435 13.3398C9.76926 13.3791 9.85549 13.4367 9.92812 13.5094L11.7188 15.3016L15.8531 11.1656C15.9998 11.0189 16.1988 10.9365 16.4062 10.9365C16.6137 10.9365 16.8127 11.0189 16.9594 11.1656C17.1061 11.3123 17.1885 11.5113 17.1885 11.7188C17.1885 11.9262 17.1061 12.1252 16.9594 12.2719Z" fill="#243992"/>
</g>
<defs>
<clipPath id="clip0_460_1448">
<rect width="25" height="25" fill="white"/>
</clipPath>
</defs>
</svg>
