<svg width="50" height="50" viewBox="0 0 50 50" fill="none" xmlns="http://www.w3.org/2000/svg">
<g clip-path="url(#clip0_566_1917)">
<path d="M37.4994 22.9165C40.6035 22.9165 43.4785 23.8957 45.8327 25.5415V16.6665C45.8327 14.354 43.9785 12.4998 41.666 12.4998H33.3327V8.33317C33.3327 6.02067 31.4785 4.1665 29.166 4.1665H20.8327C18.5202 4.1665 16.666 6.02067 16.666 8.33317V12.4998H8.33268C6.02018 12.4998 4.18685 14.354 4.18685 16.6665L4.16602 39.5832C4.16602 41.8957 6.02018 43.7498 8.33268 43.7498H24.3327C23.2757 41.528 22.7985 39.0747 22.9455 36.6187C23.0925 34.1626 23.859 31.7838 25.1735 29.7039C26.4879 27.624 28.3076 25.9108 30.4629 24.724C32.6182 23.5371 35.0389 22.9153 37.4994 22.9165ZM20.8327 8.33317H29.166V12.4998H20.8327V8.33317Z" fill="#243992"/>
<path d="M37.5007 27.0835C31.7507 27.0835 27.084 31.7502 27.084 37.5002C27.084 43.2502 31.7507 47.9168 37.5007 47.9168C43.2507 47.9168 47.9173 43.2502 47.9173 37.5002C47.9173 31.7502 43.2507 27.0835 37.5007 27.0835ZM40.9382 42.396L36.459 37.9168V31.2502H38.5423V37.0627L42.3965 40.9168L40.9382 42.396Z" fill="#243992"/>
</g>
<defs>
<clipPath id="clip0_566_1917">
<rect width="50" height="50" fill="white"/>
</clipPath>
</defs>
</svg>
