<svg width="25" height="25" viewBox="0 0 25 25" fill="none" xmlns="http://www.w3.org/2000/svg">
<g clip-path="url(#clip0_899_2255)">
<path d="M14.5827 20.709V22.9173H16.791L22.1764 17.5319L19.9681 15.3236L14.5827 20.709ZM20.8327 8.33398L14.5827 2.08398H6.24935C5.10352 2.08398 4.17643 3.02148 4.17643 4.16732L4.16602 20.834C4.16602 21.9798 5.0931 22.9173 6.23893 22.9173H12.4993V19.8444L20.8327 11.5111V8.33398ZM13.541 9.37565V3.64648L19.2702 9.37565H13.541ZM23.6556 14.584L22.916 13.8444C22.8196 13.7478 22.7052 13.6712 22.5792 13.619C22.4532 13.5667 22.3181 13.5398 22.1816 13.5398C22.0452 13.5398 21.9101 13.5667 21.7841 13.619C21.6581 13.6712 21.5436 13.7478 21.4473 13.8444L20.7077 14.584L22.916 16.7923L23.6556 16.0527C23.7522 15.9564 23.8288 15.8419 23.8811 15.7159C23.9333 15.5899 23.9602 15.4548 23.9602 15.3184C23.9602 15.1819 23.9333 15.0468 23.8811 14.9208C23.8288 14.7948 23.7522 14.6804 23.6556 14.584Z" fill="#243992"/>
</g>
<defs>
<clipPath id="clip0_899_2255">
<rect width="25" height="25" fill="white"/>
</clipPath>
</defs>
</svg>
