<svg width="40" height="40" viewBox="0 0 40 40" fill="none" xmlns="http://www.w3.org/2000/svg">
<path d="M37.7778 0H2.22222C1.63285 0 1.06762 0.234126 0.650874 0.650874C0.234126 1.06762 0 1.63285 0 2.22222V37.7778C0 38.3671 0.234126 38.9324 0.650874 39.3491C1.06762 39.7659 1.63285 40 2.22222 40H37.7778C38.3671 40 38.9324 39.7659 39.3491 39.3491C39.7659 38.9324 40 38.3671 40 37.7778V2.22222C40 1.63285 39.7659 1.06762 39.3491 0.650874C38.9324 0.234126 38.3671 0 37.7778 0ZM11.8644 34.0822H5.92667V14.9933H11.8644V34.0822ZM8.89556 12.3867C7.98321 12.3867 7.10823 12.0242 6.46311 11.3791C5.81798 10.734 5.45556 9.85901 5.45556 8.94667C5.45556 8.03432 5.81798 7.15935 6.46311 6.51422C7.10823 5.86909 7.98321 5.50667 8.89556 5.50667C9.8079 5.50667 10.6829 5.86909 11.328 6.51422C11.9731 7.15935 12.3356 8.03432 12.3356 8.94667C12.3356 9.85901 11.9731 10.734 11.328 11.3791C10.6829 12.0242 9.8079 12.3867 8.89556 12.3867ZM34.0844 34.0822H28.1533V24.8C28.1533 22.5867 28.1133 19.74 25.0689 19.74C21.98 19.74 21.5111 22.1533 21.5111 24.6444V34.0844H15.5844V14.9956H21.2733V17.6044H21.3556C22.1444 16.1044 24.0822 14.5222 26.9644 14.5222C32.9733 14.5222 34.0822 18.4733 34.0822 23.6156L34.0844 34.0822Z" fill="#FAFAFA"/>
</svg>
