<svg width="24" height="24" viewBox="0 0 24 24" fill="none" xmlns="http://www.w3.org/2000/svg">
<path d="M11.9994 3.00019C10.3454 3.00019 8.99936 4.34619 8.99936 6.00019V10.7642C7.85636 9.74019 5.97436 9.78519 4.87836 10.8792C4.31595 11.4418 4 12.2047 4 13.0002C4 13.7957 4.31595 14.5586 4.87836 15.1212L11.9994 22.2422L19.1204 15.1212C19.6828 14.5586 19.9987 13.7957 19.9987 13.0002C19.9987 12.2047 19.6828 11.4418 19.1204 10.8792C18.0264 9.78419 16.1414 9.73919 14.9994 10.7642V6.00019C14.9994 4.34619 13.6534 3.00019 11.9994 3.00019ZM10.9994 15.5862V6.00019C11.0109 5.74271 11.1213 5.49959 11.3075 5.32146C11.4938 5.14333 11.7416 5.04392 11.9994 5.04392C12.2571 5.04392 12.5049 5.14333 12.6912 5.32146C12.8775 5.49959 12.9878 5.74271 12.9994 6.00019V15.5862L16.2924 12.2932C16.4827 12.1112 16.736 12.0096 16.9994 12.0096C17.2627 12.0096 17.516 12.1112 17.7064 12.2932C17.8938 12.4807 17.9991 12.735 17.9991 13.0002C17.9991 13.2654 17.8938 13.5197 17.7064 13.7072L11.9994 19.4142L6.29236 13.7072C6.10489 13.5197 5.99957 13.2654 5.99957 13.0002C5.99957 12.735 6.10489 12.4807 6.29236 12.2932C6.48273 12.1112 6.73597 12.0096 6.99936 12.0096C7.26275 12.0096 7.51599 12.1112 7.70636 12.2932L10.9994 15.5862Z" fill="black"/>
</svg>
