<svg width="24" height="24" viewBox="0 0 24 24" fill="none" xmlns="http://www.w3.org/2000/svg">
<path d="M11.9994 21.242C10.3454 21.242 8.99936 19.896 8.99936 18.242V13.478C7.85636 14.502 5.97436 14.457 4.87836 13.363C4.31595 12.8004 4 12.0375 4 11.242C4 10.4465 4.31595 9.68358 4.87836 9.121L11.9994 2L19.1204 9.121C19.6828 9.68358 19.9987 10.4465 19.9987 11.242C19.9987 12.0375 19.6828 12.8004 19.1204 13.363C18.0264 14.458 16.1414 14.503 14.9994 13.478V18.242C14.9994 19.896 13.6534 21.242 11.9994 21.242ZM10.9994 8.656V18.242C11.0109 18.4995 11.1213 18.7426 11.3075 18.9207C11.4938 19.0989 11.7416 19.1983 11.9994 19.1983C12.2571 19.1983 12.5049 19.0989 12.6912 18.9207C12.8775 18.7426 12.9878 18.4995 12.9994 18.242V8.656L16.2924 11.949C16.4827 12.131 16.736 12.2326 16.9994 12.2326C17.2627 12.2326 17.516 12.131 17.7064 11.949C17.8938 11.7615 17.9991 11.5072 17.9991 11.242C17.9991 10.9768 17.8938 10.7225 17.7064 10.535L11.9994 4.828L6.29236 10.535C6.10489 10.7225 5.99957 10.9768 5.99957 11.242C5.99957 11.5072 6.10489 11.7615 6.29236 11.949C6.48273 12.131 6.73597 12.2326 6.99936 12.2326C7.26275 12.2326 7.51599 12.131 7.70636 11.949L10.9994 8.656Z" fill="black"/>
</svg>
