<svg width="55" height="52" viewBox="0 0 55 52" fill="none" xmlns="http://www.w3.org/2000/svg">
<ellipse cx="27.5" cy="26" rx="27.5" ry="26" fill="#243992"/>
<path d="M20.125 27.875H28.875V26.625H20.125V27.875ZM20.125 24.125H33.875V22.875H20.125V24.125ZM20.125 20.375H33.875V19.125H20.125V20.375ZM15.75 36.0962V16.77C15.75 16.1942 15.9429 15.7138 16.3288 15.3288C16.7146 14.9438 17.1946 14.7508 17.7687 14.75H36.2313C36.8062 14.75 37.2863 14.9429 37.6713 15.3288C38.0563 15.7146 38.2492 16.195 38.25 16.77V30.2313C38.25 30.8062 38.0571 31.2867 37.6713 31.6725C37.2854 32.0583 36.8054 32.2508 36.2313 32.25H19.5963L15.75 36.0962ZM19.0625 31H36.2313C36.4229 31 36.5992 30.92 36.76 30.76C36.9208 30.6 37.0008 30.4237 37 30.2313V16.7687C37 16.5771 36.92 16.4008 36.76 16.24C36.6 16.0792 36.4237 15.9992 36.2313 16H17.7687C17.5771 16 17.4008 16.08 17.24 16.24C17.0792 16.4 16.9992 16.5762 17 16.7687V33.0563L19.0625 31Z" fill="#E5F1FF"/>
</svg>
