<svg width="55" height="52" viewBox="0 0 55 52" fill="none" xmlns="http://www.w3.org/2000/svg">
<ellipse cx="27.5" cy="26" rx="27.5" ry="26" fill="#243992"/>
<path d="M32.7865 28.3641L33.3565 27.7978L32.0327 26.4678L31.4652 27.0341L32.7865 28.3641ZM35.2677 27.5603L37.6565 28.8591L38.5502 27.2116L36.1627 25.9141L35.2677 27.5603ZM38.1152 31.4391L36.3402 33.2053L37.6615 34.5341L39.4365 32.7691L38.1152 31.4391ZM35.2577 33.7728C33.4452 33.9428 28.7577 33.7916 23.6802 28.7441L22.3577 30.0728C27.8977 35.5816 33.1715 35.8516 35.4327 35.6403L35.2577 33.7728ZM23.6802 28.7441C18.8415 23.9316 18.039 19.8853 17.939 18.1291L16.0665 18.2353C16.1915 20.4453 17.1852 24.9303 22.3577 30.0728L23.6802 28.7441ZM25.399 21.0191L25.7577 20.6616L24.4377 19.3328L24.079 19.6891L25.399 21.0191ZM26.0427 16.1178L24.4677 14.0128L22.9665 15.1378L24.5415 17.2416L26.0427 16.1178ZM19.1665 13.5541L17.204 15.5041L18.5265 16.8341L20.4877 14.8841L19.1665 13.5541ZM24.739 20.3541C24.0765 19.6891 24.0765 19.6891 24.0765 19.6916H24.074L24.0702 19.6966C24.0108 19.7565 23.9576 19.8222 23.9115 19.8928C23.844 19.9928 23.7702 20.1241 23.7077 20.2903C23.5556 20.7195 23.5177 21.1808 23.5977 21.6291C23.7652 22.7103 24.5102 24.1391 26.4177 26.0366L27.7402 24.7066C25.954 22.9316 25.529 21.8516 25.4502 21.3416C25.4127 21.0991 25.4515 20.9791 25.4627 20.9516C25.4702 20.9349 25.4702 20.9324 25.4627 20.9441C25.4516 20.9613 25.439 20.9776 25.4252 20.9928L25.4127 21.0053L25.4002 21.0166L24.739 20.3541ZM26.4177 26.0366C28.3265 27.9341 29.7627 28.6741 30.8452 28.8391C31.399 28.9241 31.8452 28.8566 32.184 28.7303C32.3737 28.6609 32.551 28.5613 32.709 28.4353L32.7715 28.3791L32.7802 28.3716L32.784 28.3678L32.7852 28.3653C32.7852 28.3653 32.7865 28.3641 32.1252 27.6991C31.4627 27.0341 31.4665 27.0328 31.4665 27.0328L31.469 27.0303L31.4715 27.0278L31.479 27.0216L31.4915 27.0091L31.539 26.9716C31.5506 26.9641 31.5477 26.9649 31.5302 26.9741C31.499 26.9853 31.3765 27.0241 31.1302 26.9866C30.6127 26.9066 29.5252 26.4816 27.7402 24.7066L26.4177 26.0366ZM24.4677 14.0116C23.1927 12.3116 20.6877 12.0416 19.1665 13.5541L20.4877 14.8841C21.1527 14.2228 22.3327 14.2916 22.9665 15.1378L24.4677 14.0116ZM17.9402 18.1303C17.9152 17.6978 18.114 17.2453 18.5265 16.8353L17.2027 15.5053C16.5315 16.1728 16.0027 17.1178 16.0665 18.2353L17.9402 18.1303ZM36.3402 33.2053C35.9977 33.5478 35.6277 33.7403 35.259 33.7741L35.4327 35.6403C36.3515 35.5541 37.1027 35.0916 37.6627 34.5353L36.3402 33.2053ZM25.7577 20.6616C26.989 19.4378 27.0802 17.5041 26.044 16.1191L24.5427 17.2428C25.0465 17.9166 24.9715 18.8003 24.4365 19.3341L25.7577 20.6616ZM37.6577 28.8603C38.679 29.4153 38.8377 30.7228 38.1165 31.4403L39.439 32.7691C41.114 31.1028 40.5977 28.3241 38.5515 27.2128L37.6577 28.8603ZM33.3565 27.7991C33.8365 27.3216 34.609 27.2041 35.269 27.5616L36.164 25.9153C34.809 25.1778 33.129 25.3816 32.034 26.4691L33.3565 27.7991Z" fill="#D7E6FF"/>
</svg>
