<svg width="30" height="30" viewBox="0 0 30 30" fill="none" xmlns="http://www.w3.org/2000/svg">
<path d="M10.2656 15.0692H19.1179V13.8448H10.2656V15.0692ZM10.2656 18.4594H19.1179V17.2351H10.2656V18.4594ZM10.2656 21.8509H15.4447V20.6265H10.2656V21.8509ZM8.09847 25.7113C7.53525 25.7113 7.06509 25.5228 6.68798 25.1456C6.31087 24.7685 6.12191 24.298 6.12109 23.734V5.65019C6.12109 5.08699 6.31006 4.61683 6.68798 4.23973C7.06591 3.86263 7.53648 3.67367 8.09969 3.67285H17.7527L23.2624 9.18246V23.734C23.2624 24.2972 23.0739 24.7677 22.6968 25.1456C22.3196 25.5236 21.8487 25.7121 21.2838 25.7113H8.09847ZM17.1405 9.79464V4.89721H8.09969C7.91114 4.89721 7.73809 4.97557 7.58056 5.13229C7.42302 5.289 7.34466 5.46164 7.34547 5.65019V23.734C7.34547 23.9217 7.42383 24.0943 7.58056 24.2519C7.73728 24.4094 7.90991 24.4878 8.09847 24.4869H21.285C21.4728 24.4869 21.6454 24.4086 21.803 24.2519C21.9605 24.0951 22.0389 23.9221 22.038 23.7327V9.79464H17.1405Z" fill="#243992"/>
</svg>
