<svg width="55" height="52" viewBox="0 0 55 52" fill="none" xmlns="http://www.w3.org/2000/svg">
<ellipse cx="27.5" cy="26" rx="27.5" ry="26" fill="#243992"/>
<path fill-rule="evenodd" clip-rule="evenodd" d="M28.1913 40.2357L28.1762 40.2385L28.0786 40.2866L28.0511 40.2921L28.0318 40.2866L27.9342 40.2385C27.9196 40.2339 27.9086 40.2362 27.9012 40.2453L27.8957 40.2591L27.8723 40.8476L27.8792 40.8751L27.893 40.893L28.036 40.9947L28.0566 41.0002L28.0731 40.9947L28.2161 40.893L28.2326 40.871L28.2381 40.8476L28.2147 40.2605C28.2111 40.2458 28.2033 40.2375 28.1913 40.2357ZM28.5557 40.0803L28.5378 40.0831L28.2835 40.211L28.2697 40.2247L28.2656 40.2398L28.2903 40.8311L28.2972 40.8476L28.3082 40.8572L28.5846 40.9851C28.602 40.9897 28.6153 40.986 28.6245 40.9741L28.63 40.9548L28.5832 40.1106C28.5786 40.0941 28.5695 40.084 28.5557 40.0803ZM27.5726 40.0831C27.5665 40.0794 27.5593 40.0782 27.5524 40.0798C27.5455 40.0813 27.5394 40.0854 27.5355 40.0913L27.5272 40.1106L27.4805 40.9548C27.4814 40.9713 27.4892 40.9823 27.5038 40.9878L27.5245 40.9851L27.8008 40.8572L27.8146 40.8462L27.8201 40.8311L27.8435 40.2398L27.8393 40.2233L27.8256 40.2096L27.5726 40.0831Z" fill="#E5F1FF"/>
<path fill-rule="evenodd" clip-rule="evenodd" d="M27.375 26.1279C30.6695 26.1279 33.6656 27.0823 35.8697 28.4273C36.9697 29.0985 37.9102 29.8906 38.5895 30.7515C39.2577 31.5973 39.75 32.6095 39.75 33.6918C39.75 34.8539 39.1849 35.7699 38.3709 36.4231C37.6009 37.042 36.5848 37.4518 35.5054 37.7379C33.3356 38.3114 30.4399 38.5053 27.375 38.5053C24.3101 38.5053 21.4144 38.3127 19.2446 37.7379C18.1652 37.4518 17.1491 37.042 16.3791 36.4231C15.5637 35.7685 15 34.8539 15 33.6918C15 32.6095 15.4923 31.5973 16.1605 30.7502C16.8398 29.8906 17.7789 29.0998 18.8802 28.426C21.0844 27.0837 24.0819 26.1279 27.375 26.1279ZM27.375 28.8784C24.5934 28.8784 22.0909 29.6898 20.313 30.7749C19.4234 31.3168 18.7524 31.9054 18.3193 32.4555C17.8737 33.0193 17.75 33.4457 17.75 33.6918C17.75 33.8596 17.8009 34.037 18.1006 34.2777C18.443 34.5528 19.0384 34.8374 19.9486 35.0781C21.7609 35.5595 24.3651 35.7547 27.375 35.7547C30.3863 35.7547 32.9891 35.5581 34.8 35.0781C35.7116 34.8374 36.307 34.5528 36.6494 34.2777C36.9491 34.037 37 33.8596 37 33.6918C37 33.4443 36.8762 33.0193 36.4321 32.4555C35.9976 31.9054 35.3266 31.3168 34.437 30.7749C32.6591 29.6885 30.1566 28.8784 27.375 28.8784ZM27.375 11C29.1984 11 30.947 11.7245 32.2364 13.014C33.5257 14.3036 34.25 16.0526 34.25 17.8763C34.25 19.7 33.5257 21.449 32.2364 22.7386C30.947 24.0282 29.1984 24.7526 27.375 24.7526C25.5516 24.7526 23.803 24.0282 22.5136 22.7386C21.2243 21.449 20.5 19.7 20.5 17.8763C20.5 16.0526 21.2243 14.3036 22.5136 13.014C23.803 11.7245 25.5516 11 27.375 11ZM27.375 13.7505C26.8333 13.7505 26.2969 13.8572 25.7964 14.0646C25.296 14.2719 24.8412 14.5758 24.4582 14.9589C24.0751 15.3421 23.7713 15.7969 23.564 16.2974C23.3567 16.798 23.25 17.3345 23.25 17.8763C23.25 18.4181 23.3567 18.9546 23.564 19.4552C23.7713 19.9558 24.0751 20.4106 24.4582 20.7937C24.8412 21.1768 25.296 21.4807 25.7964 21.6881C26.2969 21.8954 26.8333 22.0021 27.375 22.0021C28.469 22.0021 29.5182 21.5674 30.2918 20.7937C31.0654 20.02 31.5 18.9705 31.5 17.8763C31.5 16.7821 31.0654 15.7327 30.2918 14.9589C29.5182 14.1852 28.469 13.7505 27.375 13.7505Z" fill="#E5F1FF"/>
</svg>
