<svg width="30" height="30" viewBox="0 0 30 30" fill="none" xmlns="http://www.w3.org/2000/svg">
<path d="M18.7091 11.0558C18.8713 10.8817 18.9596 10.6515 18.9554 10.4136C18.9512 10.1757 18.8548 9.94871 18.6866 9.78047C18.5183 9.61222 18.2914 9.51585 18.0535 9.51165C17.8156 9.50746 17.5853 9.59576 17.4113 9.75797L12.2444 14.9248L9.83241 12.5128C9.74834 12.4226 9.64696 12.3502 9.53432 12.3C9.42168 12.2498 9.30008 12.2228 9.17678 12.2207C9.05349 12.2185 8.93101 12.2412 8.81667 12.2874C8.70233 12.3335 8.59846 12.4023 8.51126 12.4895C8.42407 12.5767 8.35532 12.6806 8.30914 12.7949C8.26296 12.9092 8.24027 13.0317 8.24245 13.155C8.24463 13.2783 8.27161 13.3999 8.3218 13.5125C8.37199 13.6252 8.44435 13.7266 8.53457 13.8106L11.5955 16.8716C11.7677 17.0435 12.0011 17.1401 12.2444 17.1401C12.4878 17.1401 12.7212 17.0435 12.8933 16.8716L18.7091 11.0558ZM3.67383 7.65205C3.67383 6.5967 4.09306 5.58458 4.83931 4.83833C5.58555 4.09209 6.59768 3.67285 7.65303 3.67285H19.2845C20.3399 3.67285 21.352 4.09209 22.0983 4.83833C22.8445 5.58458 23.2637 6.5967 23.2637 7.65205V19.2836C23.2637 20.3389 22.8445 21.351 22.0983 22.0973C21.352 22.8435 20.3399 23.2628 19.2845 23.2628H7.65303C6.59768 23.2628 5.58555 22.8435 4.83931 22.0973C4.09306 21.351 3.67383 20.3389 3.67383 19.2836V7.65205ZM7.65303 5.50941C7.08476 5.50941 6.53977 5.73515 6.13795 6.13697C5.73612 6.5388 5.51038 7.08379 5.51038 7.65205V19.2836C5.51038 20.4663 6.47029 21.4262 7.65303 21.4262H19.2845C19.8528 21.4262 20.3978 21.2005 20.7996 20.7986C21.2014 20.3968 21.4272 19.8518 21.4272 19.2836V7.65205C21.4272 7.08379 21.2014 6.5388 20.7996 6.13697C20.3978 5.73515 19.8528 5.50941 19.2845 5.50941H7.65303ZM11.3151 26.3237C10.6464 26.324 9.9883 26.1558 9.40173 25.8346C8.81517 25.5134 8.31901 25.0496 7.95912 24.4859H19.8918C20.4954 24.4861 21.093 24.3673 21.6507 24.1365C22.2083 23.9056 22.715 23.5672 23.1418 23.1405C23.5686 22.7138 23.9072 22.2072 24.1382 21.6496C24.3692 21.092 24.4881 20.4944 24.4881 19.8908V7.95814C25.0515 8.31818 25.5152 8.8144 25.8362 9.40095C26.1571 9.98751 26.3252 10.6455 26.3247 11.3141V19.8908C26.3247 20.7356 26.1583 21.5721 25.835 22.3526C25.5117 23.1331 25.0379 23.8422 24.4405 24.4396C23.8432 25.0369 23.134 25.5107 22.3536 25.834C21.5731 26.1573 20.7366 26.3237 19.8918 26.3237H11.3151Z" fill="#243992"/>
</svg>
