<svg width="30" height="30" viewBox="0 0 30 30" fill="none" xmlns="http://www.w3.org/2000/svg">
<path d="M1.25 3.75C1.25 3.08696 1.51339 2.45107 1.98223 1.98223C2.45107 1.51339 3.08696 1.25 3.75 1.25H11.875C12.538 1.25 13.1739 1.51339 13.6428 1.98223C14.1116 2.45107 14.375 3.08696 14.375 3.75V11.875C14.375 12.538 14.1116 13.1739 13.6428 13.6428C13.1739 14.1116 12.538 14.375 11.875 14.375H8.75V19.4538C8.75 20.4438 9.555 21.25 10.5475 21.25H15.625V18.125C15.625 17.462 15.8884 16.8261 16.3572 16.3572C16.8261 15.8884 17.462 15.625 18.125 15.625H26.25C26.913 15.625 27.5489 15.8884 28.0178 16.3572C28.4866 16.8261 28.75 17.462 28.75 18.125V26.25C28.75 26.913 28.4866 27.5489 28.0178 28.0178C27.5489 28.4866 26.913 28.75 26.25 28.75H18.125C17.462 28.75 16.8261 28.4866 16.3572 28.0178C15.8884 27.5489 15.625 26.913 15.625 26.25V23.125H10.5463C9.57256 23.1243 8.63896 22.7372 7.95057 22.0485C7.26219 21.3599 6.87533 20.4262 6.875 19.4525V14.375H3.75C3.08696 14.375 2.45107 14.1116 1.98223 13.6428C1.51339 13.1739 1.25 12.538 1.25 11.875V3.75ZM3.75 3.125C3.58424 3.125 3.42527 3.19085 3.30806 3.30806C3.19085 3.42527 3.125 3.58424 3.125 3.75V11.875C3.125 12.0408 3.19085 12.1997 3.30806 12.3169C3.42527 12.4342 3.58424 12.5 3.75 12.5H11.875C12.0408 12.5 12.1997 12.4342 12.3169 12.3169C12.4342 12.1997 12.5 12.0408 12.5 11.875V3.75C12.5 3.58424 12.4342 3.42527 12.3169 3.30806C12.1997 3.19085 12.0408 3.125 11.875 3.125H3.75ZM18.125 17.5C17.9592 17.5 17.8003 17.5658 17.6831 17.6831C17.5658 17.8003 17.5 17.9592 17.5 18.125V26.25C17.5 26.4158 17.5658 26.5747 17.6831 26.6919C17.8003 26.8092 17.9592 26.875 18.125 26.875H26.25C26.4158 26.875 26.5747 26.8092 26.6919 26.6919C26.8092 26.5747 26.875 26.4158 26.875 26.25V18.125C26.875 17.9592 26.8092 17.8003 26.6919 17.6831C26.5747 17.5658 26.4158 17.5 26.25 17.5H18.125Z" fill="#243992"/>
</svg>
