<svg width="55" height="52" viewBox="0 0 55 52" fill="none" xmlns="http://www.w3.org/2000/svg">
<ellipse cx="27.5" cy="26" rx="27.5" ry="26" fill="#243992"/>
<path d="M30.125 24.125L24.4175 26L23.25 24.8325L28.415 20.375H30.75L34.5 22.25L37.625 22.875V31L35.125 31.625H29.3425" stroke="#D7E6FF" stroke-miterlimit="10" stroke-linecap="round" stroke-linejoin="round"/>
<path d="M16.375 29.75L19.6213 30.375L24.5612 35.3138L26.6975 34.9462L27.065 32.81L29.2012 32.4412L29.57 30.305L31.705 29.9375L32.0738 27.8012L28.825 24.5525M26.3925 22.12L24.0225 19.75L19.5 21.625L16.375 22.25M16.375 20.375H12.625V31.625H16.375V20.375ZM41.375 21.625H37.625V32.875H41.375V21.625Z" stroke="#D7E6FF" stroke-miterlimit="10" stroke-linejoin="round"/>
</svg>
