<svg width="55" height="52" viewBox="0 0 55 52" fill="none" xmlns="http://www.w3.org/2000/svg">
<ellipse cx="27.5" cy="26" rx="27.5" ry="26" fill="#243992"/>
<g clip-path="url(#clip0_932_2410)">
<path d="M24.2366 20.2362C20.1223 17.429 16.2866 19.5719 13.0723 22.8719L20.1866 27.1576M32.7651 28.7647C35.5723 32.879 33.4294 36.7147 30.1294 39.929L25.8437 32.8147" stroke="#D7E6FF" stroke-linecap="round" stroke-linejoin="round"/>
<path d="M23.3161 21.7574L31.2446 29.686M20.1875 27.136L25.8661 32.8145C30.4089 30.0931 35.5732 27.4574 37.9304 25.0145C43.0304 19.9145 40.0732 12.9288 40.0732 12.9288C40.0732 12.9288 33.0875 9.97167 27.9875 15.0717C25.5446 17.4288 22.8875 22.6145 20.1875 27.136Z" stroke="#D7E6FF" stroke-linecap="round" stroke-linejoin="round"/>
<path d="M34.5008 19.5716C34.785 19.5716 35.0575 19.4587 35.2585 19.2578C35.4594 19.0568 35.5723 18.7843 35.5723 18.5001C35.5723 18.216 35.4594 17.9435 35.2585 17.7425C35.0575 17.5416 34.785 17.4287 34.5008 17.4287C34.2167 17.4287 33.9442 17.5416 33.7432 17.7425C33.5423 17.9435 33.4294 18.216 33.4294 18.5001C33.4294 18.7843 33.5423 19.0568 33.7432 19.2578C33.9442 19.4587 34.2167 19.5716 34.5008 19.5716ZM19.8866 37.6573C18.6437 38.8573 13.0723 39.9287 13.0723 39.9287C13.0723 39.9287 14.1437 34.3573 15.3437 33.1144C15.7875 32.64 16.3645 32.3111 16.9988 32.1709C17.6331 32.0308 18.295 32.086 18.8973 32.3293C19.4996 32.5726 20.0142 32.9926 20.3732 33.534C20.7322 34.0753 20.9189 34.7128 20.9087 35.3623C20.9009 35.7935 20.8063 36.2187 20.6307 36.6126C20.4551 37.0065 20.202 37.3632 19.8866 37.6573Z" stroke="#D7E6FF" stroke-linecap="round" stroke-linejoin="round"/>
</g>
<defs>
<clipPath id="clip0_932_2410">
<rect width="30" height="30" fill="white" transform="translate(12 11)"/>
</clipPath>
</defs>
</svg>
