<svg width="30" height="30" viewBox="0 0 30 30" fill="none" xmlns="http://www.w3.org/2000/svg">
<g clip-path="url(#clip0_933_3644)">
<path d="M1.83594 6.4283C1.83594 5.21059 2.31967 4.04275 3.18072 3.1817C4.04177 2.32065 5.20961 1.83691 6.42732 1.83691H19.2832C20.5009 1.83691 21.6687 2.32065 22.5298 3.1817C23.3909 4.04275 23.8746 5.21059 23.8746 6.4283V9.23823C23.2646 9.16755 22.6486 9.16509 22.038 9.23088V9.18313H3.67249V19.2842C3.67249 20.0148 3.96273 20.7155 4.47936 21.2321C4.99599 21.7488 5.6967 22.039 6.42732 22.039H11.8525L10.5302 23.3613C10.3695 23.5215 10.221 23.6934 10.0857 23.8756H6.42732C5.20961 23.8756 4.04177 23.3918 3.18072 22.5308C2.31967 21.6697 1.83594 20.5019 1.83594 19.2842V6.4283ZM16.4016 12.3493L15.342 11.2878C15.2566 11.2024 15.1552 11.1347 15.0437 11.0885C14.9321 11.0423 14.8126 11.0185 14.6918 11.0185C14.5711 11.0185 14.4515 11.0423 14.34 11.0885C14.2284 11.1347 14.1271 11.2024 14.0417 11.2878C13.9563 11.3732 13.8886 11.4746 13.8424 11.5861C13.7962 11.6977 13.7724 11.8172 13.7724 11.938C13.7724 12.0587 13.7962 12.1783 13.8424 12.2898C13.8886 12.4014 13.9563 12.5027 14.0417 12.5881L15.4099 13.9545C15.6744 13.3901 16.0049 12.855 16.4016 12.3493ZM3.67249 7.34658H22.038V6.4283C22.038 5.69767 21.7478 4.99697 21.2312 4.48034C20.7145 3.96371 20.0138 3.67347 19.2832 3.67347H6.42732C5.6967 3.67347 4.99599 3.96371 4.47936 4.48034C3.96273 4.99697 3.67249 5.69767 3.67249 6.4283V7.34658ZM11.6688 12.5881C11.7542 12.5027 11.8219 12.4014 11.8682 12.2898C11.9144 12.1783 11.9381 12.0587 11.9381 11.938C11.9381 11.8172 11.9144 11.6977 11.8682 11.5861C11.8219 11.4746 11.7542 11.3732 11.6688 11.2878C11.5835 11.2024 11.4821 11.1347 11.3706 11.0885C11.259 11.0423 11.1394 11.0185 11.0187 11.0185C10.898 11.0185 10.7784 11.0423 10.6669 11.0885C10.5553 11.1347 10.4539 11.2024 10.3686 11.2878L6.69546 14.9609C6.60994 15.0462 6.5421 15.1476 6.4958 15.2591C6.44951 15.3707 6.42568 15.4903 6.42568 15.6111C6.42568 15.7319 6.44951 15.8515 6.4958 15.963C6.5421 16.0746 6.60994 16.1759 6.69546 16.2612L10.3686 19.9343C10.541 20.1067 10.7749 20.2036 11.0187 20.2036C11.2626 20.2036 11.4964 20.1067 11.6688 19.9343C11.8413 19.7619 11.9381 19.528 11.9381 19.2842C11.9381 19.0403 11.8413 18.8065 11.6688 18.634L8.64404 15.6111L11.6688 12.5881ZM23.6762 11.0638C24.3484 11.1409 24.5413 11.9453 24.0619 12.4265L22.2713 14.2171C22.0142 14.4742 21.8102 14.7794 21.6711 15.1154C21.532 15.4513 21.4603 15.8113 21.4603 16.1749C21.4603 16.5385 21.532 16.8985 21.6711 17.2344C21.8102 17.5703 22.0142 17.8756 22.2713 18.1327C22.5284 18.3898 22.8336 18.5937 23.1695 18.7328C23.5054 18.872 23.8654 18.9436 24.229 18.9436C24.5926 18.9436 24.9527 18.872 25.2886 18.7328C25.6245 18.5937 25.9297 18.3898 26.1868 18.1327L27.9774 16.342C28.4568 15.8627 29.263 16.0555 29.3402 16.7277C29.4681 17.8192 29.3155 18.9252 28.8968 19.9413C28.4781 20.9573 27.8072 21.8498 26.9475 22.5343C26.0878 23.2188 25.0677 23.6727 23.9837 23.8531C22.8996 24.0335 21.7875 23.9344 20.7524 23.5652L15.746 28.5735C15.4889 28.8306 15.1837 29.0345 14.8478 29.1736C14.5119 29.3128 14.1518 29.3844 13.7882 29.3844C13.4246 29.3844 13.0646 29.3128 12.7287 29.1736C12.3928 29.0345 12.0876 28.8306 11.8305 28.5735C11.5734 28.3164 11.3694 28.0111 11.2303 27.6752C11.0911 27.3393 11.0195 26.9793 11.0195 26.6157C11.0195 26.2521 11.0911 25.8921 11.2303 25.5562C11.3694 25.2202 11.5734 24.915 11.8305 24.6579L16.8369 19.6515C16.4676 18.6163 16.3685 17.504 16.549 16.4198C16.7294 15.3356 17.1835 14.3153 17.8682 13.4555C18.553 12.5958 19.4457 11.9249 20.462 11.5064C21.4783 11.0878 22.5846 10.9355 23.6762 11.0638Z" fill="#243992"/>
</g>
<defs>
<clipPath id="clip0_933_3644">
<rect width="29.3849" height="29.3849" fill="white"/>
</clipPath>
</defs>
</svg>
