<svg width="30" height="30" viewBox="0 0 30 30" fill="none" xmlns="http://www.w3.org/2000/svg">
<path d="M14.6918 3.67676C14.2099 3.67676 13.7328 3.77167 13.2876 3.95608C12.8424 4.14048 12.4378 4.41077 12.0971 4.75151C11.7564 5.09225 11.4861 5.49677 11.3017 5.94197C11.1173 6.38716 11.0224 6.86432 11.0224 7.3462C11.0224 7.82808 11.1173 8.30524 11.3017 8.75044C11.4861 9.19563 11.7564 9.60015 12.0971 9.94089C12.4378 10.2816 12.8424 10.5519 13.2876 10.7363C13.7328 10.9207 14.2099 11.0156 14.6918 11.0156C15.665 11.0156 16.5983 10.629 17.2865 9.94089C17.9746 9.25274 18.3612 8.3194 18.3612 7.3462C18.3612 6.373 17.9746 5.43967 17.2865 4.75151C16.5983 4.06336 15.665 3.67676 14.6918 3.67676ZM22.9563 5.50964C22.2256 5.50964 21.5249 5.79988 21.0083 6.31652C20.4917 6.83315 20.2014 7.53385 20.2014 8.26448C20.2014 8.99511 20.4917 9.69581 21.0083 10.2124C21.5249 10.7291 22.2256 11.0193 22.9563 11.0193C23.6869 11.0193 24.3876 10.7291 24.9042 10.2124C25.4208 9.69581 25.7111 8.99511 25.7111 8.26448C25.7111 7.53385 25.4208 6.83315 24.9042 6.31652C24.3876 5.79988 23.6869 5.50964 22.9563 5.50964ZM6.42731 5.50964C5.69669 5.50964 4.99599 5.79988 4.47936 6.31652C3.96273 6.83315 3.67249 7.53385 3.67249 8.26448C3.67249 8.99511 3.96273 9.69581 4.47936 10.2124C4.99599 10.7291 5.69669 11.0193 6.42731 11.0193C7.15794 11.0193 7.85864 10.7291 8.37527 10.2124C8.8919 9.69581 9.18214 8.99511 9.18214 8.26448C9.18214 7.53385 8.8919 6.83315 8.37527 6.31652C7.85864 5.79988 7.15794 5.50964 6.42731 5.50964ZM9.18214 14.6796C9.18553 14.1947 9.38052 13.7309 9.72457 13.3892C10.0686 13.0476 10.5338 12.8559 11.0187 12.8559H18.3649C18.852 12.8559 19.3191 13.0494 19.6635 13.3938C20.0079 13.7382 20.2014 14.2053 20.2014 14.6924V20.2021C20.2019 20.7802 20.1114 21.3547 19.9333 21.9046C19.5266 23.1511 18.6889 24.2118 17.5706 24.8962C16.4523 25.5806 15.1266 25.8439 13.8316 25.6388C12.5366 25.4338 11.3571 24.7737 10.505 23.7773C9.65281 22.7808 9.18379 21.5132 9.18214 20.2021V14.6796ZM7.34559 14.6924C7.34559 14.0221 7.52373 13.3958 7.83778 12.8559H3.67249C3.1854 12.8559 2.71827 13.0494 2.37385 13.3938C2.02943 13.7382 1.83594 14.2053 1.83594 14.6924V19.2838C1.83569 20.0355 2.02001 20.7758 2.37271 21.4396C2.72541 22.1035 3.23571 22.6706 3.85879 23.0911C4.48187 23.5116 5.19867 23.7727 5.94624 23.8515C6.69381 23.9302 7.44929 23.8243 8.14632 23.5428C7.61885 22.5076 7.34443 21.3621 7.34559 20.2003V14.6924ZM22.038 14.6924V20.2021C22.038 21.4051 21.7496 22.54 21.2372 23.5428C21.9343 23.8243 22.6898 23.9302 23.4373 23.8515C24.1849 23.7727 24.9017 23.5116 25.5248 23.0911C26.1479 22.6706 26.6582 22.1035 27.0109 21.4396C27.3636 20.7758 27.5479 20.0355 27.5476 19.2838V14.6924C27.5476 14.2053 27.3541 13.7382 27.0097 13.3938C26.6653 13.0494 26.1982 12.8559 25.7111 12.8559H21.5458C21.858 13.3958 22.038 14.0221 22.038 14.6924Z" fill="#243992"/>
</svg>
