<svg width="30" height="30" viewBox="0 0 30 30" fill="none" xmlns="http://www.w3.org/2000/svg">
<path d="M10.5987 2.08064C10.4604 2.03074 10.3121 2.01492 10.1663 2.03454C10.0206 2.05416 9.88172 2.10863 9.76151 2.19333C9.64129 2.27803 9.54328 2.39047 9.47577 2.52112C9.40827 2.65176 9.37326 2.79675 9.37372 2.9438V6.27891C9.37372 6.78396 8.96048 7.19717 8.45542 7.19717C8.21187 7.19717 7.9783 7.10043 7.80609 6.92822C7.63387 6.75601 7.53712 6.52245 7.53712 6.27891V2.9438C7.53675 2.79705 7.5012 2.65252 7.43346 2.52233C7.36571 2.39214 7.26775 2.28008 7.14778 2.19554C7.02781 2.11101 6.88932 2.05646 6.74392 2.03647C6.59852 2.01648 6.45045 2.03162 6.31212 2.08064C5.06275 2.52247 3.98047 3.33963 3.21345 4.42025C2.44643 5.50087 2.03216 6.79213 2.02734 8.11727C2.02734 10.6131 3.47825 12.872 5.70053 13.9243V25.0371C5.70053 26.5559 6.93656 27.7918 8.45542 27.7918C9.97428 27.7918 11.2103 26.5559 11.2103 25.0371V13.9243C13.4326 12.872 14.8835 10.6131 14.8835 8.11727C14.8787 6.79213 14.4644 5.50087 13.6974 4.42025C12.9304 3.33963 11.8481 2.52247 10.5987 2.08064ZM9.98714 12.4459C9.8077 12.5091 9.6523 12.6264 9.54241 12.7817C9.43253 12.937 9.37358 13.1225 9.37372 13.3128V25.0389C9.37372 25.544 8.96048 25.9572 8.45542 25.9572C8.21187 25.9572 7.9783 25.8604 7.80609 25.6882C7.63387 25.516 7.53712 25.2824 7.53712 25.0389V13.3128C7.53726 13.1225 7.47832 12.937 7.36843 12.7817C7.25855 12.6264 7.10315 12.5091 6.9237 12.4459C6.02904 12.1293 5.25447 11.5433 4.70653 10.7685C4.1586 9.99366 3.86424 9.06809 3.86394 8.1191C3.86394 6.66458 4.56735 5.32209 5.70053 4.46995V6.28259C5.70053 7.80139 6.93656 9.03736 8.45542 9.03736C9.97428 9.03736 11.2103 7.80139 11.2103 6.28259V4.46995C12.3435 5.32209 13.0469 6.66458 13.0469 8.1191C13.0469 10.0621 11.8164 11.8013 9.98714 12.4459ZM24.9811 14.9362H24.0665V7.80689L24.8874 6.16321C24.9414 6.05527 24.9735 5.93775 24.982 5.81738C24.9906 5.697 24.9753 5.57612 24.937 5.46167L24.0187 2.70689C23.9577 2.52382 23.8406 2.36461 23.684 2.25187C23.5274 2.13912 23.3393 2.07857 23.1463 2.07881H19.4731C19.2802 2.07857 19.092 2.13912 18.9354 2.25187C18.7788 2.36461 18.6617 2.52382 18.6008 2.70689L17.6825 5.46167C17.6442 5.57612 17.6289 5.697 17.6374 5.81738C17.6459 5.93775 17.6781 6.05527 17.7321 6.16321L18.553 7.80689V14.9362H17.6347C17.3912 14.9362 17.1576 15.033 16.9854 15.2052C16.8132 15.3774 16.7164 15.611 16.7164 15.8545V23.2006C16.7164 25.7331 18.7752 27.7918 21.3079 27.7918C23.8406 27.7918 25.8994 25.7331 25.8994 23.2006V15.8545C25.8994 15.611 25.8026 15.3774 25.6304 15.2052C25.4582 15.033 25.2246 14.9362 24.9811 14.9362ZM20.1362 3.91899H22.4852L23.0729 5.68572L22.3254 7.18064C22.2614 7.30833 22.228 7.44919 22.228 7.59202V14.9381H20.3914V7.59202C20.392 7.44934 20.3593 7.30849 20.2959 7.18064L19.5484 5.68572L20.1362 3.91899ZM24.0665 23.2006C24.0665 24.7194 22.8304 25.9553 21.3116 25.9553C19.7927 25.9553 18.5567 24.7194 18.5567 23.2006V16.7728H24.0665V23.2006Z" fill="#243992"/>
</svg>
