<svg width="35" height="20" viewBox="0 0 35 20" fill="none" xmlns="http://www.w3.org/2000/svg">
<rect width="35" height="20" rx="5" fill="#243992"/>
<path d="M23.9069 10.0001L24.2135 9.69342L24.5193 10.0001L24.2135 10.3067L23.9069 10.0001ZM10.9136 10.4332C10.7987 10.4332 10.6885 10.3875 10.6073 10.3063C10.5261 10.2251 10.4805 10.1149 10.4805 10.0001C10.4805 9.8852 10.5261 9.77503 10.6073 9.69381C10.6885 9.61259 10.7987 9.56696 10.9136 9.56696V10.4332ZM19.0162 4.49609L24.2135 9.69342L23.6003 10.3067L18.4029 5.10938L19.0162 4.49609ZM24.2135 10.3067L19.0162 15.504L18.4029 14.8908L23.6003 9.69342L24.2135 10.3067ZM23.9069 10.4332H10.9136V9.56696H23.9069V10.4332Z" fill="#FAFAFA"/>
</svg>
