<svg width="14" height="14" viewBox="0 0 14 14" fill="none" xmlns="http://www.w3.org/2000/svg">
<path d="M6.5625 0C2.93848 0 0 2.93848 0 6.5625C0 10.1865 2.93848 13.125 6.5625 13.125C10.1865 13.125 13.125 10.1865 13.125 6.5625C13.125 2.93848 10.1865 0 6.5625 0ZM9.39697 4.41943L6.31201 8.69678C6.26889 8.75696 6.21205 8.80599 6.1462 8.83982C6.08035 8.87365 6.00738 8.8913 5.93335 8.8913C5.85932 8.8913 5.78635 8.87365 5.7205 8.83982C5.65465 8.80599 5.59781 8.75696 5.55469 8.69678L3.72803 6.16553C3.67236 6.08789 3.72803 5.97949 3.82324 5.97949H4.51025C4.65967 5.97949 4.80176 6.05127 4.88965 6.17432L5.93262 7.62158L8.23535 4.42822C8.32324 4.30664 8.46387 4.2334 8.61475 4.2334H9.30176C9.39697 4.2334 9.45264 4.3418 9.39697 4.41943Z" fill="#243992"/>
</svg>
